# cube.obj
# range: [-1.0 - 1.0]
# center: 0.0
v 1.0 1.0 1.0
v -1.0 1.0 1.0
v -1.0 -1.0 1.0
v -1.0 -1.0 -1.0
v 1.0 -1.0 -1.0
v 1.0 1.0 -1.0
v 1.0 -1.0 1.0
v -1.0 1.0 -1.0
vn 1.0 1.0 1.0
vn -1.0 1.0 1.0
vn -1.0 -1.0 1.0
vn -1.0 -1.0 -1.0
vn 1.0 -1.0 -1.0
vn 1.0 1.0 -1.0
vn 1.0 -1.0 1.0
vn -1.0 1.0 -1.0
vt 0.0 0.0
vt 1.0 1.0
vt 1.0 0.0
vt 0.0 1.0
f 6/3/6 4/4/4 8/1/8
f 6/3/6 5/2/5 4/4/4
f 2/3/2 7/4/7 1/1/1
f 2/3/2 3/2/3 7/4/7 
f 8/3/8 3/4/3 2/1/2 
f 8/3/8 4/2/4 3/4/3 
f 1/3/1 5/4/5 6/1/6
f 1/3/1 7/2/7 5/4/5 
f 1/3/1 8/4/8 2/1/2
f 1/3/1 6/2/6 8/4/8 
f 5/3/5 3/4/3 4/1/4 
f 5/3/5 7/2/7 3/4/3
